<svg width="42" height="42" viewBox="0 0 42 42" fill="none" xmlns="http://www.w3.org/2000/svg">
<path fill-rule="evenodd" clip-rule="evenodd" d="M26.3963 20.6238C26.4483 23.579 24.0966 26.0178 21.1414 26.0732C18.1855 26.0189 15.8326 23.5798 15.8846 20.6238C15.8326 17.6685 18.1843 15.2297 21.1395 15.1743C24.0954 15.2286 26.4483 17.6678 26.3963 20.6238Z" stroke="#434343" stroke-width="1.11213" stroke-linecap="round" stroke-linejoin="round"/>
<path d="M32.9669 25.8454C31.8611 28.6847 29.8219 31.063 27.1846 32.5892C24.603 34.0726 21.5754 34.5821 18.6504 34.0255C15.6999 33.4477 13.0456 31.8533 11.1496 29.5199C7.15719 24.5847 6.93921 17.5948 10.6164 12.4203C12.3619 9.96258 14.9098 8.19035 17.8213 7.40877C20.6985 6.6517 23.7518 6.95282 26.4256 8.25733C29.1517 9.5991 31.3359 11.8342 32.6146 14.5904L32.7061 14.785C34.0957 17.9554 33.0409 23.3484 29.6817 23.3484C27.8275 23.307 26.3573 21.7715 26.3964 19.9172" stroke="#434343" stroke-width="1.11213" stroke-linecap="round" stroke-linejoin="round"/>
</svg>
