<svg width="42" height="42" viewBox="0 0 42 42" fill="none" xmlns="http://www.w3.org/2000/svg">
<path d="M20.1482 27.4357C20.1482 27.7428 20.3972 27.9918 20.7043 27.9918C21.0114 27.9918 21.2604 27.7428 21.2604 27.4357H20.1482ZM21.2604 24.0298C21.2604 23.7227 21.0114 23.4738 20.7043 23.4738C20.3972 23.4738 20.1482 23.7227 20.1482 24.0298H21.2604ZM13.9047 15.0557C13.9047 15.3628 14.1536 15.6118 14.4608 15.6118C14.7679 15.6118 15.0168 15.3628 15.0168 15.0557H13.9047ZM14.4608 13.1309L13.9047 13.1257V13.1309H14.4608ZM20.7043 7.00025L20.6994 7.55638L20.7092 7.55629L20.7043 7.00025ZM26.9478 13.1309H27.5039L27.5038 13.1257L26.9478 13.1309ZM26.3917 15.0557C26.3917 15.3628 26.6407 15.6118 26.9478 15.6118C27.2549 15.6118 27.5039 15.3628 27.5039 15.0557H26.3917ZM14.7293 15.5415C14.9976 15.3921 15.0941 15.0535 14.9447 14.7852C14.7953 14.5168 14.4567 14.4204 14.1884 14.5698L14.7293 15.5415ZM10 22.5701L9.44393 22.5655V22.5701H10ZM10 25.4894H9.44378L9.44409 25.5027L10 25.4894ZM19.1745 34.2475V33.6913L19.162 33.6915L19.1745 34.2475ZM22.234 34.2475L22.2466 33.6914H22.234V34.2475ZM31.4086 25.4894L31.9646 25.5027V25.4894H31.4086ZM31.4086 22.5701H31.9647L31.9646 22.5654L31.4086 22.5701ZM27.2182 14.5697C26.9498 14.4204 26.6112 14.5169 26.4619 14.7853C26.3126 15.0537 26.4091 15.3923 26.6775 15.5416L27.2182 14.5697ZM14.1833 14.5727C13.9165 14.7249 13.8237 15.0645 13.9759 15.3313C14.1281 15.598 14.4677 15.6909 14.7344 15.5387L14.1833 14.5727ZM19.1746 13.8121L19.173 14.3681H19.1746V13.8121ZM22.2341 13.8121V14.3681L22.2356 14.3681L22.2341 13.8121ZM26.6742 15.5387C26.941 15.6909 27.2806 15.598 27.4328 15.3313C27.585 15.0645 27.4921 14.7249 27.2254 14.5727L26.6742 15.5387ZM21.2604 27.4357V24.0298H20.1482V27.4357H21.2604ZM15.0168 15.0557V13.1309H13.9047V15.0557H15.0168ZM15.0168 13.1361C15.046 10.0265 17.5897 7.52877 20.6994 7.55629L20.7092 6.4442C16.9856 6.41125 13.9397 9.40205 13.9047 13.1257L15.0168 13.1361ZM20.7092 7.55629C23.8189 7.52877 26.3625 10.0265 26.3918 13.1361L27.5038 13.1257C27.4689 9.40205 24.423 6.41125 20.6994 6.4442L20.7092 7.55629ZM26.3917 13.1309V15.0557H27.5039V13.1309H26.3917ZM14.1884 14.5698C11.2833 16.187 9.47133 19.2407 9.44395 22.5655L10.556 22.5746C10.5801 19.6501 12.1739 16.9641 14.7293 15.5415L14.1884 14.5698ZM9.44393 22.5701V25.4894H10.5561V22.5701H9.44393ZM9.44409 25.5027C9.56934 30.7601 13.9296 34.9224 19.1871 34.8034L19.162 33.6915C14.5179 33.7966 10.6665 30.1201 10.5559 25.4762L9.44409 25.5027ZM19.1745 34.8035H22.234V33.6914H19.1745V34.8035ZM22.2214 34.8034C27.479 34.9224 31.8392 30.7601 31.9645 25.5027L30.8527 25.4762C30.742 30.1201 26.8906 33.7966 22.2466 33.6915L22.2214 34.8034ZM31.9646 25.4894V22.5701H30.8525V25.4894H31.9646ZM31.9646 22.5654C31.9368 19.2402 30.1241 16.1864 27.2182 14.5697L26.6775 15.5416C29.2335 16.9637 30.8281 19.6498 30.8525 22.5747L31.9646 22.5654ZM14.7344 15.5387C16.0863 14.7674 17.6166 14.3638 19.173 14.3681L19.1761 13.256C17.4254 13.2511 15.7039 13.7051 14.1833 14.5727L14.7344 15.5387ZM19.1746 14.3681H22.2341V13.256H19.1746V14.3681ZM22.2356 14.3681C23.792 14.3638 25.3224 14.7674 26.6742 15.5387L27.2254 14.5727C25.7047 13.7051 23.9833 13.2511 22.2325 13.256L22.2356 14.3681Z" fill="#434343"/>
</svg>
