<svg width="42" height="42" viewBox="0 0 42 42" fill="none" xmlns="http://www.w3.org/2000/svg">
<g clip-path="url(#clip0_132_23471)">
<path d="M40.8842 5.38123C40.1624 5.24998 39.5061 5.70936 39.3749 6.43123L38.7842 10.1062C36.3561 9.12186 33.5342 9.44998 31.4342 11.1562C29.728 12.5344 27.2342 12.5344 25.528 11.1562C22.8374 8.99061 19.0311 8.99061 16.3405 11.1562C14.6342 12.5344 12.1405 12.5344 10.4342 11.1562C8.33424 9.44998 5.51237 9.12186 3.08425 10.1062L2.62487 6.43123C2.49362 5.70936 1.83737 5.24998 1.1155 5.38123C0.39362 5.44686 -0.0657547 6.10311 -0.000129675 6.82498L4.528 35.5031C4.65925 36.1594 5.18425 36.6187 5.8405 36.6187H36.1592C36.8155 36.6187 37.3405 36.1594 37.4717 35.5031L41.9999 6.82498C42.0655 6.10311 41.6061 5.44686 40.8842 5.38123ZM35.0436 34.0594H6.95612L3.60925 12.7969C5.24987 11.8781 7.34987 12.0094 8.85925 13.1906C11.5499 15.3562 15.3561 15.3562 18.0467 13.1906C19.753 11.8125 22.2467 11.8125 23.953 13.1906C25.2655 14.2406 26.9061 14.8312 28.5467 14.8312C30.1874 14.8312 31.828 14.3062 33.1405 13.1906C34.6499 11.9437 36.7499 11.8125 38.3905 12.7969L35.0436 34.0594Z" fill="#343A49"/>
<path d="M17.4563 22.6406L19.2938 20.5406V19.1625H13.7157V20.8687H16.6032L14.8313 22.9031V24.4125C15.3563 24.2156 15.7501 24.15 16.0782 24.15C16.6032 24.15 17.0626 24.2812 17.3251 24.4781C17.6532 24.675 17.7845 25.0031 17.7845 25.3969C17.7845 25.7906 17.6532 26.0531 17.3907 26.25C17.1282 26.4469 16.8001 26.5781 16.4063 26.5781C15.7501 26.5781 14.9626 26.25 14.1095 25.6593L13.2563 27.3C14.3063 28.0218 15.2907 28.35 16.3407 28.35C17.3251 28.35 18.1782 28.0875 18.8345 27.5625C19.4907 27.0375 19.8188 26.25 19.8188 25.3312C19.8188 24.675 19.622 24.15 19.2282 23.625C18.7688 23.1 18.1782 22.7719 17.4563 22.6406Z" fill="#343A49"/>
<path d="M25.0028 18.9C23.756 18.9 22.7716 19.3594 22.181 20.2125C21.5247 21.0656 21.2622 22.2469 21.2622 23.625C21.2622 25.0688 21.5903 26.1844 22.181 27.0375C22.8372 27.8907 23.756 28.35 25.0028 28.35C26.2497 28.35 27.2341 27.8907 27.8247 27.0375C28.481 26.1844 28.7435 25.0031 28.7435 23.625C28.7435 22.1813 28.4153 21.0656 27.8247 20.2125C27.1685 19.3594 26.2497 18.9 25.0028 18.9ZM26.3153 25.8563C26.0528 26.3813 25.5935 26.7094 24.9372 26.7094C24.3466 26.7094 23.8872 26.4469 23.6247 25.8563C23.3622 25.3313 23.1653 24.5438 23.1653 23.625C23.1653 22.7063 23.2966 21.9844 23.6247 21.3938C23.8872 20.8688 24.3466 20.5406 24.9372 20.5406C25.5278 20.5406 25.9872 20.8031 26.3153 21.3938C26.5778 21.9188 26.7747 22.7063 26.7747 23.625C26.7747 24.5438 26.6435 25.2657 26.3153 25.8563Z" fill="#343A49"/>
</g>
<defs>
<clipPath id="clip0_132_23471">
<rect width="42" height="42" fill="white"/>
</clipPath>
</defs>
</svg>
