<svg width="42" height="42" viewBox="0 0 42 42" fill="none" xmlns="http://www.w3.org/2000/svg">
<g clip-path="url(#clip0_132_23565)">
<path d="M37.4064 35.5688H40.6877C41.2127 35.5688 41.6064 35.3062 41.8689 34.8469C42.0658 34.3875 42.0658 33.8625 41.7377 33.4688L28.3502 15.4875L41.6064 2.23125C42.1314 1.70625 42.1314 0.91875 41.6064 0.39375C41.0814 -0.13125 40.2939 -0.13125 39.7689 0.39375L26.7752 13.3219L22.0502 6.95625C21.5252 6.3 20.4096 6.3 19.9502 6.95625L15.2252 13.3219L2.23143 0.39375C1.70643 -0.13125 0.918929 -0.13125 0.393929 0.39375C-0.131071 0.91875 -0.131071 1.70625 0.393929 2.23125L13.6502 15.4875L0.262679 33.4688C-0.0654457 33.8625 -0.0654457 34.3875 0.131429 34.8469C0.328304 35.3062 0.787679 35.5688 1.31268 35.5688H4.59393L0.393929 39.7687C-0.131071 40.2938 -0.131071 41.0812 0.393929 41.6063C0.918929 42.1313 1.70643 42.1313 2.23143 41.6063L8.26893 35.5688H33.6658L39.7033 41.6063C40.2283 42.1313 41.0158 42.1313 41.5408 41.6063C42.0658 41.0812 42.0658 40.2938 41.5408 39.7687L37.4064 35.5688ZM38.0627 32.9438H34.7814L22.8377 21L26.5127 17.325L38.0627 32.9438ZM21.0002 9.975L24.9377 15.225L21.0002 19.1625L17.0627 15.225L21.0002 9.975ZM3.93768 32.9438L15.4877 17.3906L19.1627 21.0656L7.21893 32.9438H3.93768ZM10.9596 32.9438L21.0002 22.8375L31.0408 32.8781H10.9596V32.9438Z" fill="#343A49"/>
</g>
<defs>
<clipPath id="clip0_132_23565">
<rect width="42" height="42" fill="white"/>
</clipPath>
</defs>
</svg>
