<svg width="42" height="42" viewBox="0 0 42 42" fill="none" xmlns="http://www.w3.org/2000/svg">
<g clip-path="url(#clip0_132_23513)">
<path d="M40.6875 0H17.0625C16.3406 0 15.75 0.590625 15.75 1.3125C15.75 2.03437 16.3406 2.625 17.0625 2.625H39.375V9.90937H17.0625C7.67812 9.90937 0 17.5875 0 26.9719C0 27.6937 0.590625 28.2844 1.3125 28.2844H40.6875C41.4094 28.2844 42 27.6937 42 26.9719V1.3125C42 0.590625 41.4094 0 40.6875 0ZM39.375 25.6594H2.69062C3.34687 18.3094 9.58125 12.5344 17.0625 12.5344H39.375V25.6594Z" fill="#343A49"/>
<path d="M13.9783 30.975C13.3221 30.7125 12.5346 31.1063 12.2721 31.7625L9.18769 40.2282C8.92519 40.8844 9.31894 41.6719 9.97519 41.9344C10.1064 42 10.3033 42 10.4346 42C10.9596 42 11.4846 41.6719 11.6814 41.1469L14.7658 32.6813C15.0283 32.025 14.7002 31.2375 13.9783 30.975Z" fill="#343A49"/>
<path d="M21 30.9094C20.2781 30.9094 19.6875 31.5 19.6875 32.2219V40.6875C19.6875 41.4094 20.2781 42 21 42C21.7219 42 22.3125 41.4094 22.3125 40.6875V32.2219C22.3125 31.5 21.7219 30.9094 21 30.9094Z" fill="#343A49"/>
<path d="M29.6624 31.7625C29.3999 31.1063 28.678 30.7125 27.9561 30.975C27.2999 31.2375 26.9061 31.9594 27.1686 32.6813L30.253 41.1469C30.4499 41.6719 30.9749 42 31.4999 42C31.6311 42 31.828 42 31.9593 41.9344C32.6155 41.6719 33.0093 40.95 32.7468 40.2282L29.6624 31.7625Z" fill="#343A49"/>
</g>
<defs>
<clipPath id="clip0_132_23513">
<rect width="42" height="42" fill="white"/>
</clipPath>
</defs>
</svg>
