<svg width="42" height="42" viewBox="0 0 42 42" fill="none" xmlns="http://www.w3.org/2000/svg">
<path d="M31.2379 5.31567H30.7129C29.991 5.31567 29.4004 5.9063 29.4004 6.62817C29.4004 7.35005 29.991 7.94067 30.7129 7.94067H31.2379C31.9598 7.94067 32.5504 7.35005 32.5504 6.62817C32.5504 5.9063 31.9598 5.31567 31.2379 5.31567Z" fill="#343A49"/>
<path d="M26.0533 5.31567H25.5283C24.8064 5.31567 24.2158 5.9063 24.2158 6.62817C24.2158 7.35005 24.8064 7.94067 25.5283 7.94067H26.0533C26.7752 7.94067 27.3658 7.35005 27.3658 6.62817C27.3658 5.9063 26.7752 5.31567 26.0533 5.31567Z" fill="#343A49"/>
<path d="M33.8627 0H8.1377C5.97207 0 4.2002 1.77188 4.2002 3.9375V38.0625C4.2002 40.2281 5.97207 42 8.1377 42H33.7971C35.9627 42 37.7346 40.2281 37.7346 38.0625V3.9375C37.8002 1.77188 36.0283 0 33.8627 0ZM35.1752 38.0625C35.1752 38.7844 34.5846 39.375 33.8627 39.375H8.1377C7.41582 39.375 6.8252 38.7844 6.8252 38.0625V13.2563H35.1096V38.0625H35.1752ZM35.1752 10.6313H6.8252V3.9375C6.8252 3.21563 7.41582 2.625 8.1377 2.625H33.7971C34.5189 2.625 35.1096 3.21563 35.1096 3.9375V10.6313H35.1752Z" fill="#343A49"/>
<path d="M21.0001 36.0282C26.3813 36.0282 30.7126 31.6969 30.7126 26.3156C30.7126 20.9344 26.3813 16.6031 21.0001 16.6031C15.6188 16.6031 11.2876 20.9344 11.2876 26.3156C11.2876 31.6313 15.6188 36.0282 21.0001 36.0282ZM21.0001 33.4032C18.047 33.4032 15.4876 31.5657 14.4376 29.0063C15.2251 29.3344 16.1438 29.5969 17.1282 29.5969H17.3907C19.1626 29.5313 20.672 28.7438 22.0501 27.2344C22.9032 26.25 23.822 25.7907 24.8063 25.725C26.1845 25.6594 27.497 26.4469 28.1532 26.9719C27.7595 30.5156 24.7407 33.4032 21.0001 33.4032ZM21.0001 19.2281C23.9532 19.2281 26.5126 21.0656 27.5626 23.625C26.7095 23.2969 25.7251 23.0344 24.6751 23.1C22.9032 23.1657 21.3938 23.9531 20.0157 25.4625C19.1626 26.4469 18.2438 26.9063 17.2595 26.9719C15.8813 27.0375 14.5688 26.25 13.9126 25.725C14.2407 22.05 17.2595 19.2281 21.0001 19.2281Z" fill="#343A49"/>
</svg>
