<svg width="42" height="42" viewBox="0 0 42 42" fill="none" xmlns="http://www.w3.org/2000/svg">
<path d="M40.6875 5.51245H17.0625C16.3406 5.51245 15.75 6.10308 15.75 6.82495C15.75 7.54683 16.3406 8.13745 17.0625 8.13745H39.375V18.0468H17.0625C7.67812 18.0468 0 25.7249 0 35.1093C0 35.8312 0.590625 36.4218 1.3125 36.4218H40.6875C41.4094 36.4218 42 35.8312 42 35.1093V6.82495C42 6.10308 41.4094 5.51245 40.6875 5.51245ZM39.375 33.8624H2.69062C3.34687 26.5124 9.58125 20.7375 17.0625 20.7375H39.375V33.8624Z" fill="#343A49"/>
<path d="M22.6408 31.3031C24.8721 31.3031 26.6439 29.5312 26.6439 27.3C26.6439 25.0687 24.8721 23.2969 22.6408 23.2969C20.4096 23.2969 18.6377 25.0687 18.6377 27.3C18.6377 29.5312 20.4752 31.3031 22.6408 31.3031ZM22.6408 25.9219C23.4283 25.9219 24.0189 26.5125 24.0189 27.3C24.0189 28.0875 23.4283 28.6781 22.6408 28.6781C21.8533 28.6781 21.2627 28.0875 21.2627 27.3C21.2627 26.5125 21.9189 25.9219 22.6408 25.9219Z" fill="#343A49"/>
</svg>
