<svg width="42" height="42" viewBox="0 0 42 42" fill="none" xmlns="http://www.w3.org/2000/svg">
<path fill-rule="evenodd" clip-rule="evenodd" d="M21.0001 39.9C10.5619 39.9 2.1001 31.4382 2.1001 21C2.1001 10.5618 10.5619 2.09998 21.0001 2.09998C31.4383 2.09998 39.9001 10.5618 39.9001 21C39.9001 31.4382 31.4383 39.9 21.0001 39.9ZM23.1001 21V12.6C23.1001 11.4402 22.1599 10.5 21.0001 10.5C19.8403 10.5 18.9001 11.4402 18.9001 12.6V23.1C18.9001 24.2598 19.8403 25.2 21.0001 25.2H27.3001C28.4599 25.2 29.4001 24.2598 29.4001 23.1C29.4001 21.9402 28.4599 21 27.3001 21H23.1001Z" fill="#434343"/>
</svg>
