<svg width="42" height="42" viewBox="0 0 42 42" fill="none" xmlns="http://www.w3.org/2000/svg">
<path fill-rule="evenodd" clip-rule="evenodd" d="M35.9493 8.28882C34.0761 6.19323 31.5859 5.04004 28.9367 5.04004C26.2872 5.04004 24.0637 6.19323 22.1899 8.28882L20.9998 10.1897L19.8099 8.28882C17.9366 6.19323 15.7125 5.04004 13.0635 5.04004C10.4146 5.04004 7.9234 6.19323 6.05032 8.28882C2.1831 12.6154 2.1831 19.655 6.05032 23.9799L19.9077 37.298C20.1342 37.5524 20.4163 37.7081 20.711 37.7681C20.8098 37.7899 20.9092 37.8 21.0088 37.8C21.4008 37.8 21.7935 37.6328 22.092 37.298L35.9494 23.9799C39.8168 19.655 39.8168 12.6154 35.9493 8.28882Z" fill="#434343"/>
</svg>
