<svg width="42" height="42" viewBox="0 0 42 42" fill="none" xmlns="http://www.w3.org/2000/svg">
<path fill-rule="evenodd" clip-rule="evenodd" d="M8.5 3.5C5.73858 3.5 3.5 5.73858 3.5 8.5V33.5C3.5 36.2614 5.73858 38.5 8.5 38.5H33.5C36.2614 38.5 38.5 36.2614 38.5 33.5V8.5C38.5 5.73858 36.2614 3.5 33.5 3.5H8.5ZM31.5 12.25C32.4665 12.25 33.25 11.4665 33.25 10.5C33.25 9.5335 32.4665 8.75 31.5 8.75C30.5335 8.75 29.75 9.5335 29.75 10.5C29.75 11.4665 30.5335 12.25 31.5 12.25ZM29.75 21C29.75 25.8325 25.8325 29.75 21 29.75C16.1675 29.75 12.25 25.8325 12.25 21C12.25 16.1675 16.1675 12.25 21 12.25C25.8325 12.25 29.75 16.1675 29.75 21ZM21 26.25C23.8995 26.25 26.25 23.8995 26.25 21C26.25 18.1005 23.8995 15.75 21 15.75C18.1005 15.75 15.75 18.1005 15.75 21C15.75 23.8995 18.1005 26.25 21 26.25Z" fill="#434343"/>
</svg>
