<svg width="42" height="42" viewBox="0 0 42 42" fill="none" xmlns="http://www.w3.org/2000/svg">
<path fill-rule="evenodd" clip-rule="evenodd" d="M22.0501 4.19998V15.855C24.4464 16.3414 26.2501 18.4601 26.2501 21C26.2501 23.8995 23.8996 26.25 21.0001 26.25C18.1006 26.25 15.7501 23.8995 15.7501 21C15.7501 18.4601 17.5537 16.3414 19.9501 15.855V2.09998H39.9001V39.9H2.1001V2.09998H12.6001V4.19998H4.2001V37.8H37.8001V4.19998H22.0501ZM21.0001 24.5C22.9331 24.5 24.5001 22.933 24.5001 21C24.5001 19.067 22.9331 17.5 21.0001 17.5C19.0671 17.5 17.5001 19.067 17.5001 21C17.5001 22.933 19.0671 24.5 21.0001 24.5Z" fill="#434343"/>
</svg>
