<svg width="42" height="42" viewBox="0 0 42 42" fill="none" xmlns="http://www.w3.org/2000/svg">
<path fill-rule="evenodd" clip-rule="evenodd" d="M21.0001 39.9C10.5619 39.9 2.1001 31.4382 2.1001 21C2.1001 10.5618 10.5619 2.09998 21.0001 2.09998C31.4383 2.09998 39.9001 10.5618 39.9001 21C39.9001 31.4382 31.4383 39.9 21.0001 39.9ZM23.1001 18.9V10.5C23.1001 9.34018 22.1599 8.39998 21.0001 8.39998C19.8403 8.39998 18.9001 9.34018 18.9001 10.5V18.9H10.5001C9.3403 18.9 8.4001 19.8402 8.4001 21C8.4001 22.1598 9.3403 23.1 10.5001 23.1H18.9001V31.5C18.9001 32.6598 19.8403 33.6 21.0001 33.6C22.1599 33.6 23.1001 32.6598 23.1001 31.5V23.1H31.5001C32.6599 23.1 33.6001 22.1598 33.6001 21C33.6001 19.8402 32.6599 18.9 31.5001 18.9H23.1001Z" fill="#434343"/>
</svg>
