<svg width="42" height="42" viewBox="0 0 42 42" fill="none" xmlns="http://www.w3.org/2000/svg">
<path fill-rule="evenodd" clip-rule="evenodd" d="M23.0998 18.9H33.5998C34.7596 18.9 35.6998 19.8403 35.6998 21C35.6998 22.1598 34.7596 23.1 33.5998 23.1H23.0998V33.6C23.0998 34.7598 22.1596 35.7 20.9998 35.7C19.84 35.7 18.8998 34.7598 18.8998 33.6V23.1H8.3998C7.24001 23.1 6.2998 22.1598 6.2998 21C6.2998 19.8403 7.24001 18.9 8.3998 18.9H18.8998V8.40005C18.8998 7.24025 19.84 6.30005 20.9998 6.30005C22.1596 6.30005 23.0998 7.24025 23.0998 8.40005V18.9Z" fill="#434343"/>
</svg>
