<svg width="42" height="43" viewBox="0 0 42 43" fill="none" xmlns="http://www.w3.org/2000/svg">
<path d="M21 4.02502V11.025" stroke="#434343" stroke-linecap="round" stroke-linejoin="round"/>
<path d="M24.5 7.52502L17.5 7.52502" stroke="#434343" stroke-linecap="round" stroke-linejoin="round"/>
<path d="M7 18.025V30.789C7 31.5465 7.42801 32.239 8.10557 32.5778L20.1056 38.5778C20.6686 38.8593 21.3314 38.8593 21.8944 38.5778L33.8944 32.5778C34.572 32.239 35 31.5465 35 30.789V18.025" stroke="#434343"/>
<path d="M31.5 9.27502L35 11.025L21 18.025L7 11.025L10.5 9.27502" stroke="#434343" stroke-linecap="round" stroke-linejoin="round"/>
<path d="M35 11.025L21 18.025L24.5 23.275L38.5 16.275L35 11.025Z" stroke="#434343" stroke-linecap="round" stroke-linejoin="round"/>
<path d="M7 11.025L21 18.025L17.5 23.275L3.5 16.275L7 11.025Z" stroke="#434343" stroke-linecap="round" stroke-linejoin="round"/>
</svg>
