<svg width="42" height="42" viewBox="0 0 42 42" fill="none" xmlns="http://www.w3.org/2000/svg">
<path fill-rule="evenodd" clip-rule="evenodd" d="M4.2001 35.7C3.0403 35.7 2.1001 34.7598 2.1001 33.6V14.7C2.1001 13.5402 3.0403 12.6 4.2001 12.6H6.3001C7.4599 12.6 8.4001 13.5402 8.4001 14.7V33.6C8.4001 34.7598 7.4599 35.7 6.3001 35.7H4.2001ZM36.4637 11.7862C38.3537 11.7862 39.9001 13.4418 39.9001 15.4652C39.873 18.2773 39.8056 19.8283 39.698 20.1182C39.5903 20.4081 37.825 24.8662 34.4019 33.4925C33.8865 34.7802 29.6526 35.7 28.2781 35.7H16.2121C14.3221 35.7 11.5501 34.0444 11.5501 32.0209V12.6L22.9473 0.806201L22.9538 0.799511C23.9661 -0.240649 25.63 -0.263201 26.6702 0.74914C27.0137 1.301 27.3574 2.0368 27.3574 2.77261C27.3574 2.95656 27.3574 3.14051 27.3574 3.32446L25.6392 11.7862H36.4637Z" fill="#BCBFC2"/>
</svg>
