<svg width="42" height="42" viewBox="0 0 42 42" fill="none" xmlns="http://www.w3.org/2000/svg">
<path fill-rule="evenodd" clip-rule="evenodd" d="M37.7999 6.30003C38.9597 6.30003 39.8999 7.24023 39.8999 8.40003V27.3C39.8999 28.4598 38.9597 29.4 37.7999 29.4H35.6999C34.5401 29.4 33.5999 28.4598 33.5999 27.3V8.40003C33.5999 7.24023 34.5401 6.30003 35.6999 6.30003H37.7999ZM5.53627 30.2138C3.64627 30.2138 2.0999 28.5582 2.0999 26.5348C2.12705 23.7227 2.19443 22.1717 2.30204 21.8818C2.40966 21.5919 4.17501 17.1338 7.59809 8.50745C8.11354 7.21979 12.3474 6.30003 13.7219 6.30003H25.7879C27.6779 6.30003 30.4499 7.9556 30.4499 9.97907V29.4L19.0527 41.1938L19.0462 41.2005C18.0339 42.2406 16.37 42.2632 15.3298 41.2509C14.9863 40.699 14.6426 39.9632 14.6426 39.2274C14.6426 39.0434 14.6426 38.8595 14.6426 38.6755L16.3608 30.2138H5.53627Z" fill="#BCBFC2"/>
</svg>
