<svg width="42" height="42" viewBox="0 0 42 42" fill="none" xmlns="http://www.w3.org/2000/svg">
<path d="M7 7L35 35M24.5 24.9132C23.5712 25.7445 22.3446 26.25 21 26.25C18.1005 26.25 15.75 23.8995 15.75 21C15.75 19.6554 16.2555 18.4288 17.0868 17.5M34.3136 27.3135C35.3135 26.443 36.2079 25.5673 36.978 24.7571C39.0073 22.6219 39.0073 19.3781 36.978 17.2429C33.5554 13.6418 27.6772 8.75 21 8.75C19.4401 8.75 17.9238 9.01698 16.4722 9.47212M11.375 11.9059C8.82251 13.5353 6.64586 15.5344 5.02199 17.2429C2.99267 19.378 2.99267 22.6219 5.02198 24.7571C8.44461 28.3582 14.3228 33.25 21 33.25C24.2691 33.25 27.3468 32.0774 30.0385 30.4577" stroke="#28303F" stroke-width="1.5" stroke-linecap="round"/>
</svg>
