<svg width="42" height="42" viewBox="0 0 42 42" fill="none" xmlns="http://www.w3.org/2000/svg">
<path d="M36.978 17.2429C39.0073 19.378 39.0073 22.6219 36.978 24.7571C33.5554 28.3582 27.6772 33.25 21 33.25C14.3228 33.25 8.44461 28.3582 5.02199 24.7571C2.99267 22.622 2.99267 19.378 5.02198 17.2429C8.44461 13.6418 14.3228 8.75 21 8.75C27.6772 8.75 33.5554 13.6418 36.978 17.2429Z" stroke="#28303F" stroke-width="1.5"/>
<path d="M26.25 21C26.25 23.8995 23.8995 26.25 21 26.25C18.1005 26.25 15.75 23.8995 15.75 21C15.75 18.1005 18.1005 15.75 21 15.75C23.8995 15.75 26.25 18.1005 26.25 21Z" stroke="#28303F" stroke-width="1.5"/>
</svg>
