<svg width="42" height="43" viewBox="0 0 42 43" fill="none" xmlns="http://www.w3.org/2000/svg">
<path d="M17.5 11.025H28M17.5 25.025H28M17.5 18.025H38.5M17.5 32.025H38.5M5.25 18.025H8.75C9.7165 18.025 10.5 17.2415 10.5 16.275V12.775C10.5 11.8085 9.7165 11.025 8.75 11.025H5.25C4.2835 11.025 3.5 11.8085 3.5 12.775V16.275C3.5 17.2415 4.2835 18.025 5.25 18.025ZM5.25 32.025H8.75C9.7165 32.025 10.5 31.2415 10.5 30.275V26.775C10.5 25.8085 9.7165 25.025 8.75 25.025H5.25C4.2835 25.025 3.5 25.8085 3.5 26.775V30.275C3.5 31.2415 4.2835 32.025 5.25 32.025Z" stroke="#434343" stroke-width="1.5" stroke-linecap="round"/>
</svg>
