<svg width="42" height="42" viewBox="0 0 42 42" fill="none" xmlns="http://www.w3.org/2000/svg">
<circle cx="21" cy="29.75" r="1.75" transform="rotate(-180 21 29.75)" fill="#28303F"/>
<path d="M21 24.4999L21 12.2499M5.25 15.9809V26.0191C5.25 28.685 6.63653 31.1483 8.88731 32.4812L17.3627 37.5003C19.6135 38.8332 22.3865 38.8332 24.6373 37.5003L33.1127 32.4812C35.3635 31.1483 36.75 28.685 36.75 26.0191V15.9809C36.75 13.315 35.3635 10.8517 33.1127 9.51882L24.6373 4.49968C22.3865 3.16677 19.6135 3.16677 17.3627 4.49968L8.88731 9.51882C6.63653 10.8517 5.25 13.315 5.25 15.9809Z" stroke="#28303F" stroke-width="1.5" stroke-linecap="round"/>
</svg>
