<svg width="42" height="42" viewBox="0 0 42 42" fill="none" xmlns="http://www.w3.org/2000/svg">
<path d="M23.625 6.125C23.625 7.57475 22.4497 8.75 21 8.75C19.5503 8.75 18.375 7.57475 18.375 6.125C18.375 4.67525 19.5503 3.5 21 3.5C22.4497 3.5 23.625 4.67525 23.625 6.125Z" fill="#434343"/>
<path d="M22.75 36.75C22.75 37.7165 21.9665 38.5 21 38.5C20.0335 38.5 19.25 37.7165 19.25 36.75C19.25 35.7835 20.0335 35 21 35C21.9665 35 22.75 35.7835 22.75 36.75Z" fill="#434343"/>
<path d="M15.75 36.75C15.75 37.7165 14.9665 38.5 14 38.5C13.0335 38.5 12.25 37.7165 12.25 36.75C12.25 35.7835 13.0335 35 14 35C14.9665 35 15.75 35.7835 15.75 36.75Z" fill="#434343"/>
<path d="M29.75 36.75C29.75 37.7165 28.9665 38.5 28 38.5C27.0335 38.5 26.25 37.7165 26.25 36.75C26.25 35.7835 27.0335 35 28 35C28.9665 35 29.75 35.7835 29.75 36.75Z" fill="#434343"/>
<path d="M8.75 10.5C18.2411 12.8402 23.4495 12.8265 33.25 10.5" stroke="#434343" stroke-width="1.5" stroke-linecap="round" stroke-linejoin="round"/>
<path d="M17.5 21V12.25H24.5V21H17.5Z" fill="#434343"/>
<path d="M19.25 17.5L17.5 31.5" stroke="#434343" stroke-width="1.5" stroke-linecap="round" stroke-linejoin="round"/>
<path d="M22.75 17.5L24.5 31.5" stroke="#434343" stroke-width="1.5" stroke-linecap="round" stroke-linejoin="round"/>
</svg>
