<svg width="42" height="42" viewBox="0 0 42 42" fill="none" xmlns="http://www.w3.org/2000/svg">
<path d="M26.25 23.625C26.25 26.5245 23.8995 28.875 21 28.875C18.1005 28.875 15.75 26.5245 15.75 23.625C15.75 20.7255 18.1005 18.375 21 18.375C23.8995 18.375 26.25 20.7255 26.25 23.625Z" stroke="#434343" stroke-width="1.5"/>
<circle cx="21" cy="12.25" r="1.75" fill="#434343"/>
<path d="M36.75 27.125V20.125C36.75 15.2925 32.8325 11.375 28 11.375H27.7795C27.0024 8.35585 24.2617 6.125 21 6.125C17.7383 6.125 14.9976 8.35585 14.2205 11.375H14C9.16751 11.375 5.25 15.2925 5.25 20.125V27.125C5.25 31.9575 9.16751 35.875 14 35.875H28C32.8325 35.875 36.75 31.9575 36.75 27.125Z" stroke="#434343" stroke-width="1.5" stroke-linejoin="round"/>
</svg>
