<svg width="42" height="42" viewBox="0 0 42 42" fill="none" xmlns="http://www.w3.org/2000/svg">
<path d="M22.75 3.5V10.5C22.75 14.366 25.884 17.5 29.75 17.5L36.75 17.5M5.25 10.5L5.25 31.5C5.25 35.366 8.38401 38.5 12.25 38.5H29.75C33.616 38.5 36.75 35.366 36.75 31.5V20.3995C36.75 18.543 36.0125 16.7625 34.6997 15.4497L24.8003 5.55025C23.4875 4.2375 21.707 3.5 19.8505 3.5L12.25 3.5C8.38401 3.5 5.25 6.63401 5.25 10.5Z" stroke="#262626" stroke-width="1.5" stroke-linejoin="round"/>
<path d="M11.2637 31.5V23.9839H13.699C14.6218 23.9839 15.2234 24.0215 15.5037 24.0967C15.9343 24.2095 16.2949 24.4556 16.5854 24.835C16.876 25.2109 17.0212 25.698 17.0212 26.2961C17.0212 26.7576 16.9375 27.1455 16.77 27.46C16.6025 27.7744 16.3889 28.0222 16.1292 28.2034C15.8728 28.3811 15.6113 28.499 15.3447 28.5571C14.9824 28.6289 14.4578 28.6648 13.7708 28.6648H12.7812V31.5H11.2637ZM12.7812 25.2554V27.3882H13.6118C14.21 27.3882 14.6099 27.3489 14.8115 27.2703C15.0132 27.1917 15.1704 27.0686 15.2832 26.9011C15.3994 26.7336 15.4575 26.5388 15.4575 26.3167C15.4575 26.0432 15.3772 25.8176 15.2166 25.6399C15.0559 25.4622 14.8525 25.3511 14.6064 25.3066C14.4253 25.2725 14.0613 25.2554 13.5144 25.2554H12.7812Z" fill="#262626"/>
<path d="M18.262 23.9839H21.0356C21.6611 23.9839 22.1379 24.0317 22.4661 24.1274C22.907 24.2573 23.2847 24.488 23.5991 24.8196C23.9136 25.1511 24.1528 25.5579 24.3169 26.0398C24.481 26.5183 24.563 27.1096 24.563 27.8137C24.563 28.4324 24.4861 28.9656 24.3323 29.4133C24.1443 29.9602 23.876 30.4028 23.5273 30.7412C23.2642 30.9976 22.9087 31.1975 22.4609 31.3411C22.126 31.447 21.6782 31.5 21.1177 31.5H18.262V23.9839ZM19.7795 25.2554V30.2336H20.9126C21.3364 30.2336 21.6423 30.2097 21.8303 30.1619C22.0764 30.1003 22.2798 29.9961 22.4404 29.8491C22.6045 29.7021 22.7378 29.4612 22.8403 29.1262C22.9429 28.7878 22.9941 28.3281 22.9941 27.7471C22.9941 27.166 22.9429 26.72 22.8403 26.4089C22.7378 26.0979 22.5942 25.8552 22.4097 25.6809C22.2251 25.5066 21.991 25.3887 21.7073 25.3271C21.4954 25.2793 21.0801 25.2554 20.4614 25.2554H19.7795Z" fill="#262626"/>
<path d="M25.8652 31.5V23.9839H31.0178V25.2554H27.3828V27.0344H30.5205V28.3059H27.3828V31.5H25.8652Z" fill="#262626"/>
</svg>
